<svg xmlns="http://www.w3.org/2000/svg" width="19.951" height="23.126" viewBox="0 0 19.951 23.126"><defs><style>.a{fill:#605e5e;}</style></defs><g transform="translate(-41.221 -6)"><g transform="translate(41.221 6)"><path class="a" d="M43.246,137.244a6.586,6.586,0,0,0-1.878,3.674c-.064.353-.086.713-.128,1.07,0,.039-.013.077-.02.116v1.044c.022.239.043.478.067.717a14.744,14.744,0,0,0,2.916,7.249l.086.114a7.537,7.537,0,0,0,1.326,1.431,3.547,3.547,0,0,0,.362.249,2.4,2.4,0,0,0,2.179.285l.063-.02a7.8,7.8,0,0,0,1.012-.349,6.859,6.859,0,0,1,.7-.249,9.648,9.648,0,0,1,1.26-.188h.06a4.767,4.767,0,0,1,1.2.188,6.855,6.855,0,0,1,.7.249,7.793,7.793,0,0,0,1.012.349l.063.02a2.4,2.4,0,0,0,2.179-.285,3.548,3.548,0,0,0,.362-.249,7.537,7.537,0,0,0,1.326-1.431l.086-.114a14.745,14.745,0,0,0,2.916-7.249c.024-.239.045-.478.067-.717V142.1c-.007-.039-.015-.077-.02-.116-.042-.357-.064-.717-.128-1.07a6.586,6.586,0,0,0-1.878-3.674q-.21-.2-.432-.382a5.707,5.707,0,0,0-2.826-1.215,6.023,6.023,0,0,0-3.075.415c-.512.184-1.592.558-1.617.565s-1.1-.381-1.617-.565a6.023,6.023,0,0,0-3.075-.415,5.708,5.708,0,0,0-2.827,1.215Q43.457,137.041,43.246,137.244Z" transform="translate(-41.221 -130.204)"/><path class="a" d="M170.844,4.02a4.158,4.158,0,0,1-1.949,1.251,3.629,3.629,0,0,1-1.173.125c-.095,0-.113-.043-.119-.129a4.624,4.624,0,0,1,1.006-3.181A5.328,5.328,0,0,1,171.94.036c.065-.013.131-.024.2-.036h.166a5.168,5.168,0,0,1-.062,1.334A5.373,5.373,0,0,1,170.844,4.02Z" transform="translate(-158.067 0)"/></g></g></svg>