<svg xmlns="http://www.w3.org/2000/svg" width="46.998" height="47" viewBox="0 0 46.998 47"><defs><style>.a{fill:#112d46;}.b{fill:#f1f2f3;font-size:13px;font-family:Lato-Bold, Lato;font-weight:700;letter-spacing:0.123em;}.c{fill:#707070;}</style></defs><g transform="translate(0 0.318)"><g transform="translate(22.936 22.63)"><g transform="translate(0 0)"><circle class="a" cx="12" cy="12" r="12" transform="translate(0.063 0.052)"/><text class="b" transform="translate(8.063 17.052)"><tspan x="0" y="0">0</tspan></text></g></g><g transform="translate(0 -0.318)"><path class="c" d="M10.733,32.047a4.458,4.458,0,0,1-4.294-3.28L1.992,12.462H.89a.89.89,0,0,1,0-1.78H11.1L17.954.4a.89.89,0,0,1,1.481.987l-6.2,9.3H27.714l-6.2-9.3A.89.89,0,1,1,23,.4l6.858,10.285H40.06a.89.89,0,0,1,0,1.78h-1.1l-2.25,8.252a.888.888,0,0,1-.859.657.845.845,0,0,1-.235-.032.891.891,0,0,1-.625-1.093l2.123-7.784H3.835L8.155,28.3a2.68,2.68,0,0,0,2.578,1.968h9.743a.89.89,0,0,1,0,1.78Z"/></g></g></svg>