<svg xmlns="http://www.w3.org/2000/svg" width="103" height="103" viewBox="0 0 103 103"><defs><style>.a,.e{fill:none;}.a{stroke:rgba(112,112,112,0.48);opacity:0.44;}.b{fill:#f1f2f3;}.c{fill:#112d46;}.d{stroke:none;}</style></defs><g transform="translate(-619 -4388)"><g transform="translate(619 4388)"><g class="a"><circle class="d" cx="51.5" cy="51.5" r="51.5"/><circle class="e" cx="51.5" cy="51.5" r="51"/></g><path class="b" d="M43.76,0A43.76,43.76,0,1,1,0,43.76,43.76,43.76,0,0,1,43.76,0Z" transform="translate(7.74 7.74)"/></g><g transform="translate(449.886 4322)"><path class="c" d="M317.106,300.223V299.3a6.748,6.748,0,0,1-5.1,0v.926l2.551,1.913Zm0,0" transform="translate(-93.617 -179.988)"/><path class="c" d="M398.122,208v3.4a6.762,6.762,0,0,1-.224,1.7h1.074a2.551,2.551,0,1,0,0-5.1Zm0,0" transform="translate(-169.415 -97.816)"/><path class="c" d="M297.723,320.742l.451,2.7,2.1-1.258-2.073-1.555Zm0,0" transform="translate(-81.583 -199.056)"/><path class="c" d="M257.9,106.2v-1.7h1.894v1.7h.163a5.894,5.894,0,0,0,3.9-1.451l1.339,1.2c-.036.032-.077.061-.115.093a5.746,5.746,0,0,0,2.564-1.295l1.339,1.2c-.036.032-.077.061-.115.093a5.8,5.8,0,0,0,2.286-1.07V104.5h1.894v1.7H274a5.257,5.257,0,0,1,.947.086V104.5c0-4.689-4.248-8.5-9.47-8.5S256,99.814,256,104.5v1.787a5.26,5.26,0,0,1,.947-.086Zm0,0" transform="translate(-44.536 3)"/><path class="c" d="M300.847,205.872a4.038,4.038,0,0,0,.386-1.7V199.91a10.724,10.724,0,0,1-4.22.86h-1.292v-.46a10.9,10.9,0,0,1-3.118.46h-1.292v-.46a10.894,10.894,0,0,1-3.118.46H288v3.4c0,2.814,2.966,5.1,6.615,5.1a7.574,7.574,0,0,0,4.917-1.7h-4.917v-1.7Zm0,0" transform="translate(-73.68 -90.586)"/><path class="c" d="M237.578,326.323l-5.514-1.029-1.239,5.013-6-2.91-6.041,2.931-1.043-5.063-5.666,1.057c-2.4.448-4.075,2.152-4.075,4.144v9.546h5.258v-9.353h2.1v9.353h18.928v-9.353h2.1v9.353h5.258v-9.546C241.653,328.474,239.977,326.771,237.578,326.323Zm0,0" transform="translate(-3.89 -203.196)"/><path class="c" d="M242.555,213.1h1.074a6.763,6.763,0,0,1-.224-1.7V208h-.85a2.551,2.551,0,1,0,0,5.1Zm0,0" transform="translate(-30.236 -97.816)"/><path class="c" d="M353,320.772l-.6-.139-2.072,1.555,2.132,1.279Zm0,0" transform="translate(-127.114 -199.056)"/></g></g></svg>