<svg xmlns="http://www.w3.org/2000/svg" width="10.322" height="22.208" viewBox="0 0 10.322 22.208"><defs><style>.a{fill:#605e5e;}</style></defs><path class="a" d="M155.9,0h-2.313a4.979,4.979,0,0,0-3.814,1.26,5.307,5.307,0,0,0-1.159,3.713V6.531a.746.746,0,0,1-.746.746h-.8a.746.746,0,0,0-.746.746v2.336a.746.746,0,0,0,.746.746h.8a.746.746,0,0,1,.746.746v9.612a.746.746,0,0,0,.746.746h3.1a.746.746,0,0,0,.746-.746V11.85a.746.746,0,0,1,.746-.746h1.567a.847.847,0,0,0,.824-.741l.248-2.344a.657.657,0,0,0-.667-.741h-1.972a.746.746,0,0,1-.746-.746V5.363a4.186,4.186,0,0,1,.04-.667,1.3,1.3,0,0,1,.182-.465.743.743,0,0,1,.458-.317,3.263,3.263,0,0,1,.842-.088H155.9a.746.746,0,0,0,.746-.746V.746A.745.745,0,0,0,155.9,0Z" transform="translate(-146.32)"/></svg>