<svg xmlns="http://www.w3.org/2000/svg" width="103" height="103" viewBox="0 0 103 103"><defs><style>.a,.e{fill:none;}.a{stroke:rgba(112,112,112,0.48);opacity:0.44;}.b{fill:#f1f2f3;}.c{fill:#112d46;}.d{stroke:none;}</style></defs><g transform="translate(-142 -4388)"><g transform="translate(142 4388)"><g class="a"><circle class="d" cx="51.5" cy="51.5" r="51.5"/><circle class="e" cx="51.5" cy="51.5" r="51"/></g><path class="b" d="M43.76,0A43.76,43.76,0,1,1,0,43.76,43.76,43.76,0,0,1,43.76,0Z" transform="translate(7.74 7.74)"/></g><g transform="translate(167 4422)"><path class="c" d="M33.376,40H6.83a.83.83,0,1,0,0,1.659H33.376a.83.83,0,0,0,0-1.659Z" transform="translate(-0.203 -22.544)"/><path class="c" d="M53.383,48.869h-.871v-9.58a7.847,7.847,0,0,0-7.838-7.838h-6.1v-9.58A.871.871,0,0,0,37.707,21H2.871A.871.871,0,0,0,2,21.871V49.74a.871.871,0,0,0,.871.871h.871v.871a2.613,2.613,0,0,0,2.613,2.613h4.191a5.213,5.213,0,0,0,9.036,0H40.156a5.213,5.213,0,0,0,9.036,0h2.449a2.613,2.613,0,0,0,2.613-2.613V49.74A.871.871,0,0,0,53.383,48.869Zm-2.613-9.58v1.742H42.932a.871.871,0,0,1-.871-.871V33.193h2.613a6.1,6.1,0,0,1,6.1,6.1Zm-10.451-6.1V40.16a2.613,2.613,0,0,0,2.613,2.613H50.77v6.1H49.192a5.213,5.213,0,0,0-9.036,0H38.578V33.193ZM19.582,48.869A5.3,5.3,0,0,0,16.8,46.552a5.028,5.028,0,0,0-1.733-.3,5.213,5.213,0,0,0-4.518,2.613h-6.8V45.385H36.836v3.484ZM3.742,22.742H36.836v20.9H3.742ZM6.354,52.352a.871.871,0,0,1-.871-.871v-.871H9.916a4.877,4.877,0,0,0,0,1.742Zm8.709,2.613a3.484,3.484,0,1,1,3.484-3.484A3.484,3.484,0,0,1,15.063,54.965Zm5.147-2.613a4.877,4.877,0,0,0,0-1.742H39.527a4.877,4.877,0,0,0,0,1.742Zm24.464,2.613a3.484,3.484,0,1,1,3.484-3.484A3.484,3.484,0,0,1,44.674,54.965Zm7.838-3.484a.871.871,0,0,1-.871.871h-1.82a4.877,4.877,0,0,0,0-1.742h2.691Z" transform="translate(-2 -21)"/></g></g></svg>