<svg xmlns="http://www.w3.org/2000/svg" width="34.098" height="27.965" viewBox="0 0 34.098 27.965"><defs><style>.a{fill:#707070;stroke:#707070;}</style></defs><g transform="translate(-658.064 -5251.79)"><path class="a" d="M2.49,23.066c7.919-.693,8.686-5.868,8.2-9.528H2.668A2.545,2.545,0,0,1,0,11.135V2.4A2.545,2.545,0,0,1,2.668,0h9.7a2.545,2.545,0,0,1,2.668,2.4v8.733a2.182,2.182,0,0,1-.071.553c.944,3.443.523,7.281-.644,9.291-3.313,5.711-11.831,5.97-11.831,5.97Z" transform="translate(674.158 5279.254) rotate(180)"/><path class="a" d="M2.49,23.066c7.919-.693,8.686-5.868,8.2-9.528H2.668A2.545,2.545,0,0,1,0,11.135V2.4A2.545,2.545,0,0,1,2.668,0h9.7a2.545,2.545,0,0,1,2.668,2.4v8.733a2.182,2.182,0,0,1-.071.553c.944,3.443.523,7.281-.644,9.291-3.313,5.711-11.831,5.97-11.831,5.97Z" transform="translate(691.662 5279.254) rotate(180)"/></g></svg>