<svg xmlns="http://www.w3.org/2000/svg" width="23.999" height="24" viewBox="0 0 23.999 24"><defs><style>.a{fill:#605e5e;}</style></defs><g transform="translate(-281 -7288)"><path class="a" d="M-1834-58h-20a2,2,0,0,1-2-2V-80a2,2,0,0,1,2-2h20a2,2,0,0,1,2,2v20A2,2,0,0,1-1834-58Zm-10-18a6.007,6.007,0,0,0-6,6,6.007,6.007,0,0,0,6,6,6.007,6.007,0,0,0,6-6A6.007,6.007,0,0,0-1844-76Zm7-3a2,2,0,0,0-2,2,2,2,0,0,0,2,2,2,2,0,0,0,2-2A2,2,0,0,0-1837-79Z" transform="translate(2137 7370)"/><circle class="a" cx="4" cy="4" r="4" transform="translate(289 7296)"/></g></svg>