<svg xmlns="http://www.w3.org/2000/svg" width="103" height="103" viewBox="0 0 103 103"><defs><style>.a,.e{fill:none;}.a{stroke:rgba(112,112,112,0.48);opacity:0.44;}.b{fill:#f1f2f3;}.c{fill:#112d46;}.d{stroke:none;}</style></defs><g transform="translate(-142 -4542)"><g transform="translate(142 4542)"><g class="a"><circle class="d" cx="51.5" cy="51.5" r="51.5"/><circle class="e" cx="51.5" cy="51.5" r="51"/></g><path class="b" d="M43.76,0A43.76,43.76,0,1,1,0,43.76,43.76,43.76,0,0,1,43.76,0Z" transform="translate(7.74 7.74)"/></g><g transform="translate(176 4576)"><path class="c" d="M35.52,250.83a3.2,3.2,0,0,0-3.955-1.733l-6.347,2.116a3.15,3.15,0,0,0-1.732-2.6l-8.692-4.346a5.228,5.228,0,0,0-3.783-.352l-2.593.741A3.149,3.149,0,0,0,5.31,242H1.048A1.048,1.048,0,0,0,0,243.044v14.673a1.048,1.048,0,0,0,1.048,1.048H7.406a1.048,1.048,0,0,0,1.048-1.048v-.562l5.419,2.709a9.413,9.413,0,0,0,7.931.232l12.064-5.14a3.142,3.142,0,0,0,1.652-4.127Zm-29.162,5.84H2.1V244.092H5.31a1.049,1.049,0,0,1,1.048,1.048Zm26.687-3.64L20.98,258.17a7.316,7.316,0,0,1-6.17-.18l-6.356-3.178v-7.983l3.132-.895a3.134,3.134,0,0,1,2.27.211l8.692,4.346a1.048,1.048,0,1,1-.938,1.875l-5.186-2.593a3.158,3.158,0,0,0-3.869.858,1.048,1.048,0,0,0,1.642,1.3,1.052,1.052,0,0,1,1.29-.286l5.186,2.593a3.146,3.146,0,0,0,3.509-.474l8.046-2.682a1.107,1.107,0,0,1,1.365.569,1.047,1.047,0,0,1-.548,1.375Zm0,0" transform="translate(0 -225.087)"/><path class="c" d="M303.061,93.048A1.048,1.048,0,1,1,302.013,92,1.048,1.048,0,0,1,303.061,93.048Zm0,0" transform="translate(-279.936 -85.572)"/><path class="c" d="M363.061,153.044A1.048,1.048,0,1,1,362.013,152,1.048,1.048,0,0,1,363.061,153.044Zm0,0" transform="translate(-335.743 -141.376)"/><path class="c" d="M306.974,92.306a1.048,1.048,0,0,0-1.482,0L301.3,96.5a1.048,1.048,0,0,0,1.482,1.482l4.192-4.192A1.048,1.048,0,0,0,306.974,92.306Zm0,0" transform="translate(-279.961 -85.571)"/><path class="c" d="M181.39,12.487l10.481,8.384a1.048,1.048,0,0,0,1.307,0l10.551-8.384a1.048,1.048,0,0,0-.652-1.869h-3.214V1.048A1.048,1.048,0,0,0,198.814,0H186.237a1.048,1.048,0,0,0-1.048,1.048v9.572h-3.144a1.048,1.048,0,0,0-.655,1.867Zm4.847.23a1.048,1.048,0,0,0,1.048-1.048V2.1h10.481v9.572a1.048,1.048,0,0,0,1.048,1.048h1.259l-7.545,6-7.495-6Zm0,0" transform="translate(-168.35 0)"/></g></g></svg>