<svg xmlns="http://www.w3.org/2000/svg" width="25.847" height="22.208" viewBox="0 0 25.847 22.208"><defs><style>.a{fill:#605e5e;}</style></defs><g transform="translate(0 0)"><path class="a" d="M25.088,44.786q-.191.057-.382.106c-.779.2-.851-.064-.287-.645a5.26,5.26,0,0,0,.669-.849c.434-.686.058-.985-.681-.665q-.4.171-.8.31a3.321,3.321,0,0,1-2.521-.569,5.516,5.516,0,0,0-6.828.813,5.442,5.442,0,0,0-1.616,3.965,6,6,0,0,0,.036.645c.039.355-.551.613-1.346.5a15.129,15.129,0,0,1-4.9-1.586,15.745,15.745,0,0,1-4.068-3.036c-.562-.583-1.322-.533-1.532.254A5.693,5.693,0,0,0,.636,45.5,5.522,5.522,0,0,0,1.3,48.172a5.737,5.737,0,0,0,.777,1.109c.5.557.424.88-.273.682A8.894,8.894,0,0,1,.6,49.49v.035A5.462,5.462,0,0,0,1.858,53.09a5.512,5.512,0,0,0,1.8,1.461c.72.362,1.056.564.653.617a5.629,5.629,0,0,1-.733.048q-.25,0-.523-.023c-.288-.025-.34.584.1,1.269A5.579,5.579,0,0,0,4.483,57.9a5.375,5.375,0,0,0,1.779.907c.773.223.928.631.239,1.05A10.674,10.674,0,0,1,.84,61.41q-.35,0-.668-.016c-.369-.018-.121.311.59.69a15.159,15.159,0,0,0,7.225,1.772,15.939,15.939,0,0,0,5.523-.945,14,14,0,0,0,4.411-2.533,16.878,16.878,0,0,0,3.155-3.652,16.4,16.4,0,0,0,1.975-4.311,16.148,16.148,0,0,0,.65-4.5c0-.135,0-.257,0-.364,0-.2.521-.746,1.107-1.3q.4-.378.758-.793C26.1,44.838,25.86,44.558,25.088,44.786Z" transform="translate(-0.003 -41.648)"/></g></svg>