<svg xmlns="http://www.w3.org/2000/svg" width="39.81" height="33.442" viewBox="0 0 39.81 33.442"><defs><style>.a,.b{fill:none;}.a{stroke:#707070;stroke-width:1.5px;}.c,.d{stroke:none;}.d{fill:#707070;}</style></defs><g transform="translate(0 0.75)"><path class="a" d="M19.536-1400.454a7.271,7.271,0,0,1-2.211,5.336,7.27,7.27,0,0,1-5.335,2.21,7.27,7.27,0,0,1-5.335-2.21,7.271,7.271,0,0,1-2.211-5.336,7.27,7.27,0,0,1,2.211-5.335A7.27,7.27,0,0,1,11.99-1408a7.27,7.27,0,0,1,5.335,2.21A7.27,7.27,0,0,1,19.536-1400.454Z" transform="translate(7.586 1408)"/><g class="b" transform="translate(0 17.123)"><path class="c" d="M39.81,15.568H0A21.991,21.991,0,0,1,7.384,4.409a19.985,19.985,0,0,1,25.043,0,21.982,21.982,0,0,1,7.38,11.155Z"/><path class="d" d="M 37.72163391113281 14.06829738616943 C 36.41271591186523 10.73463821411133 34.2472038269043 7.770750522613525 31.49360275268555 5.582897186279297 C 28.13477325439453 2.911837339401245 24.12779235839844 1.49999725818634 19.90585327148438 1.49999725818634 C 15.683913230896 1.49999725818634 11.67694282531738 2.911837339401245 8.317553520202637 5.583337306976318 C 5.563297748565674 7.771492958068848 3.397024869918823 10.73505115509033 2.087220907211304 14.06829738616943 L 37.72163391113281 14.06829738616943 M 39.81014251708984 15.56829738616943 L 39.80385208129883 15.56829738616943 L 3.165893531331676e-06 15.56829738616943 C 1.248833179473877 11.16073703765869 3.87233304977417 7.19914722442627 7.384483337402344 4.408867359161377 C 11.01145362854004 1.524577260017395 15.34305286407471 -2.737426711973967e-06 19.90585327148438 -2.737426711973967e-06 C 24.46866226196289 -2.737426711973967e-06 28.80026245117188 1.524577260017395 32.4272346496582 4.408867359161377 C 35.93938446044922 7.199427127838135 38.55974197387695 11.16104698181152 39.80700302124023 15.56390762329102 L 39.81014251708984 15.56829738616943 Z"/></g></g></svg>